<svg width="349" height="376" viewBox="0 0 349 376" fill="none" xmlns="http://www.w3.org/2000/svg">
<g clip-path="url(#clip0_1590_855)">
<path d="M268.68 361.12L339.12 265.69C344.13 258.91 345.1 249.96 341.67 242.26L255.12 48.02C252.89 43.01 248.97 38.94 244.05 36.53L184.66 7.40001C178.16 4.21001 170.54 4.21001 164.04 7.40001L104.65 36.53C99.73 38.95 95.81 43.01 93.58 48.02L7.02997 242.26C3.59997 249.96 4.56997 258.91 9.57997 265.69L80.02 361.12C84.38 367.03 91.25 370.55 98.6 370.63C130.48 370.97 218.23 370.97 250.12 370.63C257.46 370.55 264.34 367.03 268.7 361.12H268.68Z" stroke="#1D1D1B" stroke-width="10" stroke-miterlimit="10"/>
<path d="M178.56 262.84C190.22 256.19 209.32 245.35 220.78 239.12C226.67 235.91 230.12 230.07 229.76 223.9L226.77 172.95C226.47 167.92 223.67 163.27 219.14 160.3L179.58 134.33C172.99 130.01 164.04 130.01 157.46 134.33L117.9 160.3C113.37 163.28 110.56 167.92 110.27 172.95L107.28 223.9C106.92 230.07 110.37 235.92 116.26 239.12C127.73 245.36 146.82 256.19 158.48 262.84C164.61 266.34 172.43 266.34 178.56 262.84Z" stroke="#1D1D1B" stroke-width="10" stroke-miterlimit="10"/>
<path d="M161.95 209.49C162.68 196.36 148.82 198.55 142.26 202.2C135.7 205.85 132.05 228.46 148.1 237.21C164.15 245.96 182.38 242.32 188.22 225.54C194.06 208.76 183.84 196.36 164.15 188.34C144.46 180.32 132.78 166.46 157.59 155.52C182.39 144.58 191.87 169.38 191.87 169.38C192.6 176.67 178.01 184.7 173.63 175.22" stroke="#1D1D1B" stroke-width="10" stroke-linecap="round" stroke-linejoin="round"/>
<path d="M22.63 278.79L108.05 212.33" stroke="#1D1D1B" stroke-width="10" stroke-linecap="round" stroke-linejoin="round"/>
<path d="M195.91 143.6L271.36 84.03" stroke="#1D1D1B" stroke-width="10" stroke-linecap="round" stroke-linejoin="round"/>
<path d="M61.78 330.58L153.12 259.01" stroke="#1D1D1B" stroke-width="10" stroke-linecap="round" stroke-linejoin="round"/>
<path d="M228.65 201.31L298.35 146.52" stroke="#1D1D1B" stroke-width="10" stroke-linecap="round" stroke-linejoin="round"/>
<path d="M57.78 299.46C60.6022 299.46 62.89 297.172 62.89 294.35C62.89 291.528 60.6022 289.24 57.78 289.24C54.9578 289.24 52.67 291.528 52.67 294.35C52.67 297.172 54.9578 299.46 57.78 299.46Z" fill="#1D1D1B"/>
<path d="M98.31 268.99C101.132 268.99 103.42 266.702 103.42 263.88C103.42 261.058 101.132 258.77 98.31 258.77C95.4878 258.77 93.2 261.058 93.2 263.88C93.2 266.702 95.4878 268.99 98.31 268.99Z" fill="#1D1D1B"/>
<path d="M231.87 164.27C234.692 164.27 236.98 161.982 236.98 159.16C236.98 156.338 234.692 154.05 231.87 154.05C229.048 154.05 226.76 156.338 226.76 159.16C226.76 161.982 229.048 164.27 231.87 164.27Z" fill="#1D1D1B"/>
<path d="M272.09 133.47C274.912 133.47 277.2 131.182 277.2 128.36C277.2 125.538 274.912 123.25 272.09 123.25C269.268 123.25 266.98 125.538 266.98 128.36C266.98 131.182 269.268 133.47 272.09 133.47Z" fill="#1D1D1B"/>
<path d="M320.88 287.7L229.3 216.22" stroke="#1D1D1B" stroke-width="10" stroke-linecap="round" stroke-linejoin="round"/>
<path d="M139.5 146.19L74.99 95.94" stroke="#1D1D1B" stroke-width="10" stroke-linecap="round" stroke-linejoin="round"/>
<path d="M285.71 337.47L185.53 259.34" stroke="#1D1D1B" stroke-width="10" stroke-linecap="round" stroke-linejoin="round"/>
<path d="M107.08 197.42L47.75 152.68" stroke="#1D1D1B" stroke-width="10" stroke-linecap="round" stroke-linejoin="round"/>
<path d="M285.39 308.78C288.212 308.78 290.5 306.492 290.5 303.67C290.5 300.848 288.212 298.56 285.39 298.56C282.568 298.56 280.28 300.848 280.28 303.67C280.28 306.492 282.568 308.78 285.39 308.78Z" fill="#1D1D1B"/>
<path d="M244.21 277.01C247.032 277.01 249.32 274.722 249.32 271.9C249.32 269.078 247.032 266.79 244.21 266.79C241.388 266.79 239.1 269.078 239.1 271.9C239.1 274.722 241.388 277.01 244.21 277.01Z" fill="#1D1D1B"/>
<path d="M105.38 167.03C108.202 167.03 110.49 164.742 110.49 161.92C110.49 159.098 108.202 156.81 105.38 156.81C102.558 156.81 100.27 159.098 100.27 161.92C100.27 164.742 102.558 167.03 105.38 167.03Z" fill="#1D1D1B"/>
<path d="M64.29 135.26C67.1122 135.26 69.4 132.972 69.4 130.15C69.4 127.328 67.1122 125.04 64.29 125.04C61.4678 125.04 59.18 127.328 59.18 130.15C59.18 132.972 61.4678 135.26 64.29 135.26Z" fill="#1D1D1B"/>
</g>
<defs>
<clipPath id="clip0_1590_855">
<rect width="348.7" height="375.88" fill="white"/>
</clipPath>
</defs>
</svg>
